<?xml version="1.0" ?><!-- Uploaded to: SVG Repo, www.svgrepo.com, Generator: SVG Repo Mixer Tools -->
<svg fill="#000000" width="800px" height="800px" viewBox="0 0 100 100" id="Слой_1" version="1.1" xml:space="preserve" xmlns="http://www.w3.org/2000/svg" xmlns:xlink="http://www.w3.org/1999/xlink"><path d="M90.97,71.741c-0.28,6.05-3.1,8-4.79,9.17l-0.39,0.28c-0.12,0.08-0.19,0.21-0.21,0.35c-0.4,3.97-3.48,6.36-6,7.68  c-3.08,1.61-7.52,1.22-9.29,0.98c-0.14-0.02-0.29,0.03-0.4,0.13c-0.04,0.03-3.57,3.19-9.75,2.59c-6.16-0.59-8.58-4.03-8.61-4.06  c-0.09-0.14-0.25-0.22-0.41-0.22h-0.01c-5.01,0.08-7.14-0.86-10.04-2.43c-3.26-1.76-5.77-5.83-6.39-10.37  c-0.03-0.2-0.18-0.37-0.39-0.41c-0.09-0.03-9.6-2.35-11.06-12.35c-0.98-6.68,3.35-10.53,6.23-11.89c-0.15,1.03-0.18,2.07-0.11,3.12  c0.02,0.28,0.25,0.48,0.53,0.47c0.28-0.02,0.49-0.26,0.47-0.54c-0.34-4.94,1.9-9.63,6.31-13.19c4.22-3.42,11.46-5.71,15.19-4.81  c0.21,0.06,0.42-0.03,0.54-0.21c0.07-0.11,0.65-0.96,1.76-2.02c0.02-0.01,0.03-0.02,0.04-0.04c2.69-2.54,8.43-6.28,17.73-4.21  c12.02,2.67,11.45,12.85,11.42,13.28c-0.02,0.22,0.11,0.42,0.32,0.5c0.04,0.02,3.86,1.51,5.37,7.03c1.53,5.64-0.29,11.01-0.3,11.07  c-0.07,0.19-0.01,0.41,0.14,0.54C88.9,62.201,91.3,64.381,90.97,71.741z"/><path d="M36.84,39.661c-0.28,0.2-0.55,0.4-0.81,0.61c-0.69,0.56-1.32,1.13-1.9,1.74l-0.01,0.01h-0.03  c-5.63,1.62-13.95,2.49-18.84-0.39c-3.35-1.98-4.21-4.22-4.96-6.19c-0.35-0.91-0.68-1.78-1.22-2.51c0.9-0.65,5.97-1.26,8.67-0.46  c0.81,1.97,2.18,3.84,4.45,5.03c3.55,1.86,7.89,2.31,11.27,2.31C34.76,39.811,35.93,39.741,36.84,39.661z"/><path d="M57.02,30.541c-0.05,0.07-0.07,0.14-0.08,0.22c-0.71,0.41-1.34,0.84-1.9,1.26c1.53-4.36,1.7-10.15,1.4-12.66  c-0.04-0.28-0.29-0.48-0.56-0.44c-0.27,0.03-0.47,0.28-0.44,0.56c0.34,2.77,0.09,9.71-2.06,13.92c-0.01,0.01-0.01,0.03-0.01,0.04  c-0.81,0.76-1.34,1.41-1.61,1.76c-1.43-0.27-3.23-0.17-5.16,0.22c0-0.01-0.01-0.01-0.01-0.02c-1.01-1.3-1.64-2.63-1.97-3.95  c-1.24-5.02,1.8-10.04,4.5-13.65c2.03-2.72,1.61-8.52,1.38-10.61c2.11,0.81,6.98,3.91,9.05,8.75  C61.47,20.461,60.62,25.371,57.02,30.541z"/><path d="M43.17,36.401c-0.83,0.3-1.67,0.64-2.48,1.02c-0.01,0-0.01,0-0.02,0c-6.61,0.37-12.99-3.14-14.7-4.4  c-0.22-0.16-0.54-0.12-0.7,0.11c-0.16,0.22-0.12,0.53,0.11,0.7c1.61,1.19,7.22,4.31,13.39,4.59c-0.01,0-0.01,0.01-0.01,0.01  c-0.01,0-0.01,0-0.02,0c-0.1,0.01-9.66,1.55-16.08-1.82c-2.46-1.29-4.05-3.62-4.72-6.93c-0.71-3.51-0.09-6.93,0.29-7.82  C20.85,22.671,38.47,28.311,43.17,36.401z"/><path d="M45.55,35.671c-0.47,0.12-0.94,0.25-1.41,0.4c-0.86-1.55-2.15-3-3.7-4.34c0-0.01,0-0.01,0-0.01c0.01-0.02,0-0.04-0.01-0.06  c-2.7-8.16-17.81-19-19.5-20.19c-0.21-0.68,0.1-1.37,0.42-1.83c0.93-1.39,2.95-2.49,4.58-2.49c2.35,0,13.99,10.47,17.6,24.08  c0.02,0.06,0.04,0.13,0.05,0.19c0.06,0.22,0.12,0.45,0.17,0.67c0,0.02,0.01,0.04,0.03,0.06C44.13,33.321,44.68,34.501,45.55,35.671z  "/><path d="M46.15,20.381c-1.32,2.19-2.42,4.65-2.74,7.21c-1.19-3.24-2.8-6.28-4.57-8.99l0.01-0.01c0.32-1.48,0.57-4.14,0.62-5.33  c1.33,0.45,5.99,3.61,6.65,7.03C46.13,20.321,46.13,20.351,46.15,20.381z"/></svg>