<?xml version="1.0" encoding="iso-8859-1"?>
<!-- Uploaded to: SVG Repo, www.svgrepo.com, Generator: SVG Repo Mixer Tools -->
<!DOCTYPE svg PUBLIC "-//W3C//DTD SVG 1.1//EN" "http://www.w3.org/Graphics/SVG/1.1/DTD/svg11.dtd">
<svg fill="#000000" version="1.1" id="Capa_1" xmlns="http://www.w3.org/2000/svg" xmlns:xlink="http://www.w3.org/1999/xlink" 
	 width="800px" height="800px" viewBox="0 0 456.26 456.26"
	 xml:space="preserve">
<g>
	<g id="Layer_2_37_">
		<g>
			<path d="M289.475,252.016c-19.018-17.303-45.438-29.465-74.516-34.324c-0.365-10.605-10.843-19.361-24.49-21.107v-16.59h4.463
				c3.555,3.563,7.642,6.891,12.147,9.838c9.578,6.266,29.206,11.4,37.718-1.934c-1.156-2.219-3.328-5.652-5.277-7.869
				c-0.881,2.766-16.572,14.926-42.911-13.072c0,0,40.338-8.828,49.879,17.387c0.933-3.855,2.461-8.127,3.966-12.318
				c2.272-6.344,4.627-12.904,5.184-18.814c0.964-10.227-3.93-15.271-8.204-17.703c-3.068-1.744-6.666-2.629-10.695-2.629
				c-8.935,0-20.313,4.387-33.817,13.039c-5.025,3.221-9.375,6.414-12.45,8.783V0h-10v154.701c-3.074-2.369-7.425-5.563-12.45-8.783
				c-13.505-8.652-24.883-13.039-33.817-13.039c-4.029,0-7.627,0.885-10.695,2.629c-4.275,2.432-9.168,7.477-8.204,17.703
				c0.557,5.91,2.909,12.471,5.184,18.814c1.503,4.191,3.033,8.463,3.965,12.318c9.54-26.215,49.879-17.387,49.879-17.387
				c-26.339,27.998-42.03,15.838-42.91,13.072c-1.95,2.217-4.122,5.65-5.278,7.869c8.512,13.334,28.14,8.199,37.717,1.934
				c4.506-2.947,8.593-6.273,12.148-9.838h4.463v16.59c-13.648,1.746-24.126,10.502-24.49,21.107
				c-29.078,4.859-55.497,17.021-74.514,34.324c-19.666,17.893-30.496,40.531-30.496,63.746c0,46.336,47.051,73.971,84.857,96.178
				c25.832,15.175,48.143,28.277,48.143,42.822c0,0.828,0.672,1.5,1.5,1.5c0.828,0,1.5-0.672,1.5-1.5
				c0-14.016,22.019-26.994,47.516-42.022c38.086-22.451,85.484-50.392,85.484-96.978
				C319.969,292.547,309.139,269.908,289.475,252.016z"/>
			<path d="M385.941,115.289c-12.063-10.975-28.821-18.689-47.268-21.771c-0.229-6.727-6.877-12.281-15.535-13.389V69.606h2.831
				c2.255,2.262,4.849,4.371,7.706,6.24c6.076,3.973,18.525,7.23,23.925-1.229c-0.732-1.406-2.109-3.584-3.348-4.99
				c-0.558,1.754-10.512,9.469-27.219-8.291c0,0,25.588-5.6,31.64,11.029c0.591-2.447,1.562-5.156,2.516-7.814
				c1.441-4.025,2.935-8.188,3.287-11.934c0.611-6.488-2.492-9.689-5.205-11.23c-1.944-1.107-4.229-1.668-6.782-1.668
				c-5.668,0-12.886,2.783-21.451,8.271c-3.188,2.043-5.947,4.068-7.898,5.57V0h-6.342v53.561c-1.951-1.502-4.711-3.527-7.897-5.57
				c-8.566-5.488-15.783-8.271-21.451-8.271c-2.556,0-4.838,0.561-6.784,1.668c-2.711,1.541-5.815,4.742-5.204,11.23
				c0.354,3.746,1.846,7.908,3.289,11.934c0.952,2.658,1.923,5.367,2.515,7.814c6.052-16.629,31.641-11.029,31.641-11.029
				c-16.709,17.76-26.662,10.045-27.221,8.291c-1.236,1.406-2.614,3.584-3.348,4.99c5.399,8.459,17.849,5.201,23.925,1.229
				c2.857-1.869,5.45-3.979,7.706-6.24h2.831V80.13c-8.658,1.107-15.304,6.662-15.535,13.389
				c-18.444,3.082-35.203,10.797-47.267,21.771c-3.188,2.902-6.009,6.004-8.443,9.256c2.317,0.643,4.519,1.535,6.575,2.705
				c9.348,5.316,14.073,15.104,12.966,26.854c-0.668,7.096-3.225,14.225-5.696,21.119c-1.406,3.926-2.858,7.975-3.676,11.354
				l-1.637,6.771c10.225,9.182,22.973,16.676,34.395,23.385c16.388,9.625,30.538,17.938,30.538,27.165
				c0,0.524,0.426,0.95,0.951,0.95c0.526,0,0.951-0.426,0.951-0.95c0-8.892,13.967-17.124,30.14-26.657
				c24.159-14.242,54.227-31.965,54.227-61.514C405.285,141,398.415,126.639,385.941,115.289z M323.14,60.311
				c1.907,0.863,3.234,2.777,3.234,5.006c0,0.377-0.041,0.744-0.114,1.1c-0.359-1.738-1.541-3.172-3.12-3.885V60.311z
				 M316.798,62.531c-1.578,0.713-2.76,2.146-3.119,3.885c-0.074-0.355-0.114-0.723-0.114-1.1c0-2.229,1.326-4.143,3.233-5.006
				V62.531L316.798,62.531z"/>
		</g>
	</g>
</g>
</svg>